<!DOCTYPE svg PUBLIC "-//W3C//DTD SVG 1.1//EN" "http://www.w3.org/Graphics/SVG/1.1/DTD/svg11.dtd">
<!-- Uploaded to: SVG Repo, www.svgrepo.com, Transformed by: SVG Repo Mixer Tools -->
<svg fill="#1E87E4" height="800px" width="800px" version="1.2" baseProfile="tiny" id="Layer_1" xmlns="http://www.w3.org/2000/svg" xmlns:xlink="http://www.w3.org/1999/xlink" viewBox="-69 0 117 256" xml:space="preserve" stroke="#1E87E4">
<g id="SVGRepo_bgCarrier" stroke-width="0"/>
<g id="SVGRepo_tracerCarrier" stroke-linecap="round" stroke-linejoin="round"/>
<g id="SVGRepo_iconCarrier"> <path d="M-10.9,4.9c11.3,0,20.5,9.2,20.5,20.5S0.4,45.9-10.9,45.9s-20.5-9.2-20.5-20.5S-22.2,4.9-10.9,4.9z M14.9,51.2h-51.2 c-14.2,0-25.6,11.4-25.6,25.6v62.6c0,4.9,3.9,9,9,9s9-3.9,9-9V81.9c0-1.4,1.2-2.6,2.6-2.6s2.6,1.2,2.6,2.6v155.2 c0,7.7,5.7,14,12.8,14s12.8-6.3,12.8-14v-88.5c0-1.4,1.2-2.6,2.6-2.6c1.4,0,2.6,1.2,2.6,2.6v88.5c0,7.7,5.7,14,12.8,14 c7.1,0,12.8-6.3,12.8-14V81.9c0-1.4,1.2-2.6,2.6-2.6s2.6,1.2,2.6,2.6v57.6c0,4.9,3.9,9,9,9s9-3.9,9-9V76.8 C40.5,62.6,28.8,51.2,14.9,51.2z"/> </g>
</svg>